# xmcd
#
# Track frame offsets:
#	150
#	21991
#	40565
#	60412
#	77906
#	99122
#	118219
#	136929
#	158031
#	172232
#	190861
#	202351
#	220859
#	235402
#
# Disc length: 3300 seconds
#
# Revision: 2
# Processed by: cddbd v1.5.1PL2 Copyright (c) Steve Scherf et al.
# Submitted via: audiograbber 1.83.01
#
DISCID=c30ce20e
DTITLE=Beccy Cole - Little Victories
DYEAR=2003
DGENRE=Country
TTITLE0=Blackwood Hill
TTITLE1=Little Victories
TTITLE2=Life Goes On
TTITLE3=Under The New Moon
TTITLE4=Sorry I Asked
TTITLE5=That's The Sound
TTITLE6=Single Girl Blues
TTITLE7=This Time
TTITLE8=Just Shoot Me
TTITLE9=Big Brother
TTITLE10=Men Don't Dance Anymore
TTITLE11=What Matters Most
TTITLE12=How Wrong Is It
TTITLE13=Wild Turkey
EXTD=
EXTT0=
EXTT1=
EXTT2=
EXTT3=
EXTT4=
EXTT5=
EXTT6=
EXTT7=
EXTT8=
EXTT9=
EXTT10=
EXTT11=
EXTT12=
EXTT13=
PLAYORDER=
